# xmcd
#
# Track frame offsets:
#	150
#	49634
#	81494
#	108632
#	145994
#	188613
#	218892
#	236459
#	259364
#	287135
#	310045
#
# Disc length: 4409 seconds
#
# Revision: 2
# Processed by: cddbd v1.5.2PL0 Copyright (c) Steve Scherf et al.
# Submitted via: audiograbber 1.83.01
#
DISCID=a211370b
DTITLE=Dave Brubeck - Second Set, CD 2
DYEAR=1900
DGENRE=Jazz
TTITLE0=On The Alamo
TTITLE1=Don't Worry About Me
TTITLE2=Here Lies Love
TTITLE3=Gone With The Wind
TTITLE4=When You're Smiling
TTITLE5=Back Bay Blues
TTITLE6=Makin' Time
TTITLE7=Ode To Cowboy
TTITLE8=Summer Song
TTITLE9=Yonder For Two
TTITLE10=History Of Boy Scout
EXTD=
EXTT0=
EXTT1=
EXTT2=
EXTT3=
EXTT4=
EXTT5=
EXTT6=
EXTT7=
EXTT8=
EXTT9=
EXTT10=
PLAYORDER=
